PathFileType	4	(X/Y/Z)	62_1_39_p0_0-558.trc
DataRate	CameraRate	NumFrames	NumMarkers	Units	OrigDataRate	OrigDataStartFrame	OrigNumFrames
50.0	50.0	6	27	m	50.0	489	559
Frame#	Time	RHip			RKnee			RAnkle			RBigToe			RSmallToe			RHeel			LHip			LKnee			LAnkle			LBigToe			LSmallToe			LHeel			Neck			Head			Nose			RShoulder			RElbow			RWrist			RThumb			RIndex			RPinky			LShoulder			LElbow			LWrist			LThumb			LIndex			LPinky			
		X1	Y1	Z1	X2	Y2	Z2	X3	Y3	Z3	X4	Y4	Z4	X5	Y5	Z5	X6	Y6	Z6	X7	Y7	Z7	X8	Y8	Z8	X9	Y9	Z9	X10	Y10	Z10	X11	Y11	Z11	X12	Y12	Z12	X13	Y13	Z13	X14	Y14	Z14	X15	Y15	Z15	X16	Y16	Z16	X17	Y17	Z17	X18	Y18	Z18	X19	Y19	Z19	X20	Y20	Z20	X21	Y21	Z21	X22	Y22	Z22	X23	Y23	Z23	X24	Y24	Z24	X25	Y25	Z25	X26	Y26	Z26	X27	Y27	Z27	
489	9.78	0.32479872490652567	0.4951408921015641	0.25402951960456926	0.31325610267895826	0.7286405122925608	0.5736560677902237	0.32739688766356145	0.9776974554224518	0.8525185461956983	0.302266069993932	0.8955125168158459	0.9468202297531199	0.3492675737992274	0.8803438159753382	0.9385882495502358	0.33431899113562463	1.1215480718889401	0.8613743919262226	0.11952728042429178	0.5716210654796156	0.20751376134091087	0.13653653822042977	0.8319334572985227	0.5382595651474479	0.16050101663696872	1.073616706696883	0.8252423708383366	0.12560644321591713	0.9331491043762516	0.9148625619854007	0.08541315134874765	0.9800284997916543	0.8851769917988379	0.18897641586087535	1.1255886440703702	0.8391554607620458	0.21542160839258015	0.12395106560944866	-0.2077462907301606	0.18616932934506633	-0.07743276314788299	-0.3623522299571087	0.16390702112510244	-0.03258459654607526	-0.23982207682431622	0.3549549126534426	0.1460257922514808	-0.10997536736542433	0.444854696333252	0.3117835904056474	0.12351992701171075	0.4046349175128436	0.3781864784958763	0.34355322920559667	0.3494566741683687	0.485888733620484	0.41596629988230654	0.37509399043375574	0.5142855030876631	0.42249536647379504	0.41059783790616583	0.5017986194662173	0.41441113526194234	0.05799057230865195	0.20894952153974433	-0.16043951170047144	0.008465440640137106	0.423693382682259	0.029337055882628582	0.03196622248600819	0.4966084387969362	0.26165252498314573	0.07785792788811681	0.5469859063544451	0.352276967842234	0.05820021897800953	0.5756200436125744	0.36744209728950733	0.028260735134333016	0.5562049593391805	0.35701522919721435
490	9.8	0.32470106087686196	0.4948851678335967	0.2540969922927426	0.3195450356595737	0.7455533354804251	0.578314974336656	0.32746071238083907	0.9777288564237747	0.8524900461439853	0.3080189988621722	0.9259322330154356	0.9442467955768623	0.35590852193102945	0.8934302522120072	0.9376966071358335	0.32788367780772026	1.086974867169023	0.8653217917481522	0.11643637707271993	0.5596001597100541	0.21567634063791588	0.13817439426399034	0.8165786607734479	0.5422546499130216	0.16048041133381566	1.073624377422	0.8253172919499776	0.12547272104586357	0.9332267715299714	0.9148913095313046	0.08063636916755731	0.9796573781797695	0.8851087504416539	0.18973427523542893	1.122094888118402	0.8355295456319323	0.20980139829916689	0.11476772422951474	-0.20234994280241206	0.1864551165739463	-0.07726176767742754	-0.36237553094841124	0.16759079273990074	-0.031042839678914663	-0.23718613099783983	0.355051082697199	0.14236287519853294	-0.11605774857432694	0.4450549990375531	0.32477183774165297	0.11372246190025288	0.4048354046128923	0.37801720340105577	0.3432121646468765	0.3568658607623671	0.4804099157822726	0.41468926549627594	0.3772348365525073	0.48676310303888737	0.4312015942264955	0.4225183789381346	0.46742897915139553	0.42140045934627746	0.05803085260362567	0.20875152976316166	-0.16028960246213997	0.010659144152759257	0.4101489896556491	0.035534993331249376	0.03255089207534054	0.49590132259768105	0.261709065158854	0.06761057310149278	0.5645828992874902	0.3544342253985169	0.04810840129765759	0.5649104640886101	0.37219697618518033	0.021681793413640953	0.5578214049342465	0.35968283822676456
491	9.82	0.3320698117142849	0.5089664092624459	0.2529617534005457	0.3196236933488745	0.7439492897578263	0.5743990993556425	0.3274403978231069	0.9773532087157573	0.852592273981962	0.30149945665269634	0.9127110277322958	0.945048072172707	0.355956392924271	0.8933435365642156	0.937505334283919	0.3357395556312246	1.1050309503347604	0.8671920361627777	0.12075852408252648	0.560177601601765	0.21567888570947805	0.13815151714182514	0.8165424797355013	0.5420673365354993	0.16058569316094165	1.073755526241169	0.8253416594065741	0.11989643368873164	0.9196198795866657	0.916082414974457	0.08532328076292607	0.980239762770294	0.8851800227640094	0.18992874125845252	1.122011101652362	0.8353568208571052	0.21508894544257168	0.10362418755170952	-0.19568480406656366	0.19290545181019048	-0.07991118047698861	-0.3606456551061364	0.17137157759358645	-0.031156923776225982	-0.23729067433960893	0.3595159290359327	0.14661905666329555	-0.11034253437589678	0.44523712154169165	0.32440626532008915	0.1139961582739209	0.405275654782318	0.3784439446481288	0.34304521922867665	0.3631950943697024	0.49456554540262326	0.4144671636661847	0.38150758063834456	0.4864485707036017	0.43152074357573955	0.4293133870770433	0.4786413011791661	0.4176623314320115	0.05811681643689961	0.20885070885454982	-0.16020114874158015	0.015991331339760325	0.3874645098697289	0.05053544840055503	0.025985765819529102	0.4845923111451523	0.26606461423919003	0.06238280940018526	0.5678800043880905	0.3576854203206303	0.04019847426084365	0.5684147917993178	0.38023253853525146	0.008269353836477039	0.544398630443767	0.3642359753420081
492	9.84	0.3210072806211914	0.49827640856870276	0.26067136328473073	0.3088613434147516	0.7286323612577359	0.5767121383217123	0.3273160205768848	0.9767938936374487	0.8526129841969435	0.3051973265509648	0.9126075563340574	0.9459797257659002	0.3557757843022784	0.8930374545787214	0.9378294690206904	0.32216676314771003	1.0841291279552516	0.8652715111384099	0.11624961440582621	0.559017770915531	0.21586637403465397	0.13552390002566342	0.8178314320087475	0.542558847759053	0.16057962943712673	1.0735647782744773	0.8252290048551039	0.12546776346459632	0.9337235470180439	0.9148393538652355	0.0862710782900448	0.9945428826098455	0.8837812353084443	0.1898754326457454	1.1215271191995189	0.8352522185019067	0.22080341017163546	0.11258211429551777	-0.20139859566305382	0.19718817189189464	-0.07912880742861275	-0.36128050128804007	0.17654956967768545	-0.04129626615849036	-0.23092489491104212	0.35954547113769325	0.14657565791618193	-0.11038167289963663	0.44525305058626435	0.32433032114146476	0.11390931995789595	0.4058121916935144	0.37635285261151535	0.3402302270330991	0.36851978292024257	0.4922100432916473	0.41226282668790226	0.3858277214677934	0.48624919926459587	0.43531055566429316	0.4293847413439455	0.5108653771321954	0.41187889377011827	0.05834733652416957	0.20916749371871057	-0.16041449682891926	0.018224372558964808	0.3759164183421829	0.05982471197224067	0.02716781354913746	0.4972251966521066	0.2651798541875764	0.061954518933394785	0.5676269329180014	0.35782058790262505	0.03845562049407264	0.5638027472713603	0.3775054445303992	0.007286624494237514	0.5459224066538402	0.3678183398218755
493	9.86	0.3199782335569285	0.493441536820948	0.2543600197414667	0.3133722426155943	0.7284567692570986	0.5732657360332365	0.3274912795745523	0.9772962588703362	0.8525444602517686	0.31218020935638663	0.9264057663659072	0.9447100241365063	0.3558996161109927	0.8932156701291237	0.9377201682207705	0.3285181276560849	1.098355834276128	0.8638735762648886	0.11016762881808499	0.5466343831630218	0.22007769544386527	0.13560957588692835	0.8181286839971695	0.5427555888005264	0.16063470252024625	1.0736197655433835	0.8252445007296507	0.12549850405248975	0.9337441856192085	0.914803015819747	0.08626759174049287	0.9945021375315404	0.8836523538340203	0.18990883819390528	1.1213842377376357	0.835273100027688	0.2208744406755819	0.11262909814713182	-0.20137397069607968	0.19731345714191334	-0.07933439677596833	-0.36098223180697037	0.18029590970303577	-0.04133498776036156	-0.2307346327206158	0.3598403178884985	0.1448146832806067	-0.11351962304821192	0.44511998811953035	0.3243383902923969	0.11377343405193083	0.41170288255710485	0.38808843763704964	0.339811494223332	0.3686190268360283	0.4972243295028202	0.41865938456652907	0.3863636664949822	0.47538121955832874	0.44224205075439665	0.42983742449558476	0.49559727883908333	0.41675038769908723	0.05842852610501511	0.20920146520405403	-0.1603687064336137	0.022413139174020217	0.37689100416570964	0.05949076158294307	0.021363525451027075	0.4867649104885123	0.27282082326927465	0.06477947295688036	0.5596295018970798	0.3689027812539678	0.03466767800687577	0.5689878411170768	0.3868370280889147	-0.007512593451354394	0.5203354210945617	0.3758711663576815
494	9.88	0.3202063444326751	0.4951427005174089	0.2578393701161618	0.31329910988533305	0.7281414132384586	0.5732067036772497	0.3274399437353814	0.9768377618531213	0.8526914832468147	0.30611509941141946	0.9135949723679794	0.9451400471070108	0.34950427960407154	0.8802743226752663	0.9383635592085108	0.32777955246629714	1.086371786552217	0.8652684653819668	0.11027776280553557	0.5465628333423	0.22022019933006767	0.135635759419291	0.817244593430186	0.5395126404807155	0.16066966126308568	1.0737490535255192	0.825336876752646	0.12543871861784558	0.9332697330627814	0.914819228808075	0.08629684918690736	0.9943133958179834	0.883648707623499	0.1899344885957266	1.1217201212248675	0.8352152310323796	0.2209082175373456	0.11258320650759132	-0.20129325578023122	0.1974348682215876	-0.07927027602831596	-0.3610950398978916	0.180629655905201	-0.04138158030951557	-0.23086877127376562	0.3596095231054099	0.14654828275439827	-0.11041520204397205	0.44504072954750046	0.32258341840853116	0.11024050672036032	0.4164720748154244	0.3724975704839929	0.34165675240457405	0.36947862562658507	0.4798402174962268	0.42041881644259826	0.3878398092551358	0.4552972903917729	0.4414686350552161	0.42979096653914917	0.466340821355923	0.42569921300796343	0.058427502808510404	0.20923432876034692	-0.16034925538606193	0.024597223472364513	0.36385161410772593	0.06546211536440842	0.022004098124546363	0.4882297839114163	0.2728702267791434	0.055469393791556666	0.548221270688643	0.3725740644725353	0.02930406075043131	0.5573652705116189	0.38998790926686866	-0.007588243415187589	0.5201540312483632	0.3760448871717807
